# xmcd
# 
# Track frame offsets:
#     150
#     3796
#     18920
#     35939
#     52883
#     69560
#     88549
#     110323
#     127055
#     149319
#     162250
#     178337
#     193225
# 
# Disc length: 2903
# 
# Revision: 0
# Processed by: cddbd v1.5.2PL0 Copyright (c) Steve Scherf et al.
# Submitted via: fre:ac v1.0.17
# 
DISCID=b20b550d
DTITLE=Steve 'n' Seagulls - Farm Machine
DYEAR=2015
DGENRE=Country
TTITLE0=Grand Opening
TTITLE1=Black Dog
TTITLE2=Thunderstruck
TTITLE3=The Trooper
TTITLE4=Ich Will
TTITLE5=Paradise City
TTITLE6=Nothing Else Matters
TTITLE7=Over The Hills And Far Away
TTITLE8=Seek And Destroy
TTITLE9=Holy Diver
TTITLE10=Run To The Hills
TTITLE11=You Shook Me All Night Long
TTITLE12=Cemetery Gates
EXTD=
EXTT0=
EXTT1=
EXTT2=
EXTT3=
EXTT4=
EXTT5=
EXTT6=
EXTT7=
EXTT8=
EXTT9=
EXTT10=
EXTT11=
EXTT12=
PLAYORDER=
